# xmcd CD database file
#
# Track frame offsets:
#	150
#	24221
#	42796
#	73206
#	87709
#	104201
#	122953
#	143367
#	161955
#	180077
#	202072
#	226550
#	245560
#
# Disc length: 3565 seconds
#
# Revision: 0
# Processed by: cddbd v1.5.2PL0 Copyright (c) Steve Scherf et al.
# Submitted via: CDex 1.79
#
DISCID=b20deb0d
DTITLE=Crazy Texas Gypsies - Too much fun
DYEAR=1900
DGENRE=Blues
TTITLE0=Crazy Texas Gypsies - It's Tough
TTITLE1=Crazy Texas Gypsies - High Heeled
TTITLE2=Crazy Texas Gypsies - Too Much Fun
TTITLE3=Crazy Texas Gypsies - Hold Me Tight
TTITLE4=Crazy Texas Gypsies - Crazy
TTITLE5=Crazy Texas Gypsies - I Didn't expect it
TTITLE6=Crazy Texas Gypsies - Strangers
TTITLE7=Crazy Texas Gypsies - You Fool You
TTITLE8=Crazy Texas Gypsies - Texas Women
TTITLE9=Crazy Texas Gypsies - Can't Let Go
TTITLE10=Crazy Texas Gypsies - Angel Eyes
TTITLE11=Crazy Texas Gypsies - Take Me Away
TTITLE12=Crazy Texas Gypsies - Dancin' Like A Gypsy
EXTD=
EXTT0=
EXTT1=
EXTT2=
EXTT3=
EXTT4=
EXTT5=
EXTT6=
EXTT7=
EXTT8=
EXTT9=
EXTT10=
EXTT11=
EXTT12=
PLAYORDER=
